<svg width="21" height="19" viewBox="0 0 21 19" fill="none" xmlns="http://www.w3.org/2000/svg">
<path d="M3.821 2.91006C7.72 0.145056 13.289 0.371056 16.894 3.44506C20.561 6.57406 21.062 11.6831 18.046 15.3431C15.205 18.7901 10.081 19.9261 5.815 18.1481L5.582 18.0471L1.208 18.9781L1.168 18.9841L1.133 18.9911H1.115L1.093 18.9961H1.055L1.022 19.0001L1.001 18.9991L0.978 19.0001L0.945 18.9971H0.91L0.888 18.9931L0.866 18.9911L0.831 18.9841L0.797 18.9791L0.781 18.9751L0.757 18.9701L0.708 18.9541L0.684 18.9491L0.673 18.9441L0.651 18.9371L0.606 18.9171L0.576 18.9051L0.565 18.8991L0.551 18.8931L0.52 18.8751L0.475 18.8511L0.459 18.8401L0.422 18.8141L0.382 18.7871L0.38 18.7831L0.367 18.7741L0.324 18.7341L0.299 18.7141L0.293 18.7071L0.237 18.6451L0.224 18.6311L0.213 18.6171L0.174 18.5611L0.16 18.5421L0.155 18.5321L0.113 18.4591L0.106 18.4471L0.102 18.4391L0.095 18.4271L0.0810001 18.3891L0.0610001 18.3471L0.0569999 18.3311L0.053 18.3211L0.036 18.2601L0.029 18.2421L0.027 18.2271L0.0220001 18.2081L0.017 18.1751L0.00900006 18.1331L0.00699997 18.1021L0.00399995 18.0921V18.0761L0 18.0221L0.000999928 17.9861L0.00200009 17.9631L0.00399995 17.9101L0.0079999 17.8851V17.8661L0.016 17.8311L0.0209999 17.7971L0.026 17.7771L0.03 17.7571L0.0480001 17.6971L0.0510001 17.6841L1.201 14.2341L1.179 14.1971C-1.031 10.4501 -0.03 5.80606 3.592 3.07806L3.821 2.91006Z" fill="url(#paint0_linear_858_6179)"/>
<defs>
<linearGradient id="paint0_linear_858_6179" x1="6.5" y1="1.50012" x2="10" y2="21.0001" gradientUnits="userSpaceOnUse">
<stop offset="0.00961538" stop-color="#AD009F"/>
<stop offset="0.520827" stop-color="#EC0072"/>
<stop offset="1" stop-color="#FFE60A"/>
</linearGradient>
</defs>
</svg>
