<svg width="32" height="32" viewBox="0 0 32 32" fill="none" xmlns="http://www.w3.org/2000/svg">
<path d="M16 9C14.8954 9 14 9.89543 14 11C14 13.0652 14.7462 15.9149 15.1841 17.4031C15.288 17.7559 15.6166 18 16.0013 18C16.3852 18 16.713 17.7569 16.817 17.4054C17.2548 15.9254 18 13.0889 18 11C18 9.89543 17.1046 9 16 9ZM13 11C13 9.34315 14.3431 8 16 8C17.6569 8 19 9.34315 19 11C19 13.2504 18.2124 16.2137 17.7759 17.6891C17.5413 18.482 16.8107 19 16.0013 19C15.1901 19 14.4586 18.4798 14.2248 17.6854C13.7888 16.2037 13 13.2266 13 11ZM16 21C15.4477 21 15 21.4477 15 22C15 22.5523 15.4477 23 16 23C16.5523 23 17 22.5523 17 22C17 21.4477 16.5523 21 16 21ZM14 22C14 20.8954 14.8954 20 16 20C17.1046 20 18 20.8954 18 22C18 23.1046 17.1046 24 16 24C14.8954 24 14 23.1046 14 22Z" fill="#616161"/>
</svg>
