<svg width="32" height="32" viewBox="0 0 32 32" fill="none" xmlns="http://www.w3.org/2000/svg">
<path d="M14 10H19.5C20.3284 10 21 10.6716 21 11.5V15H20V11.5C20 11.2239 19.7761 11 19.5 11H14V10ZM11 14V19.5C11 19.7761 11.2239 20 11.5 20H15V21H11.5C10.6716 21 10 20.3284 10 19.5V14H11ZM8 9.5C8 8.67157 8.67157 8 9.5 8H11.5C12.3284 8 13 8.67157 13 9.5V11.5433C13 12.3717 12.3284 13.0433 11.5 13.0433H9.5C8.67157 13.0433 8 12.3717 8 11.5433V9.5ZM9.5 9C9.22386 9 9 9.22386 9 9.5V11.5433C9 11.8195 9.22386 12.0433 9.5 12.0433H11.5C11.7761 12.0433 12 11.8195 12 11.5433V9.5C12 9.22386 11.7761 9 11.5 9H9.5ZM16.0039 17.5C16.0039 16.6716 16.6755 16 17.5039 16H22.5039C23.3323 16 24.0039 16.6716 24.0039 17.5V22.5C24.0039 23.3284 23.3323 24 22.5039 24H17.5039C16.6755 24 16.0039 23.3284 16.0039 22.5V17.5ZM17.5039 17C17.2278 17 17.0039 17.2239 17.0039 17.5V22.5C17.0039 22.7761 17.2278 23 17.5039 23H22.5039C22.78 23 23.0039 22.7761 23.0039 22.5V17.5C23.0039 17.2239 22.78 17 22.5039 17H17.5039Z" fill="#616161"/>
</svg>
