<svg width="32" height="32" viewBox="0 0 32 32" fill="none" xmlns="http://www.w3.org/2000/svg">
<path d="M16 8C20.4183 8 24 11.5817 24 16C24 20.4183 20.4183 24 16 24C11.5817 24 8 20.4183 8 16C8 11.5817 11.5817 8 16 8ZM16 9C12.134 9 9 12.134 9 16C9 19.866 12.134 23 16 23C19.866 23 23 19.866 23 16C23 12.134 19.866 9 16 9ZM13.1547 18.4273C14.6642 19.9463 17.0877 20.0045 18.6671 18.5961L18.8453 18.4273C19.04 18.2314 19.3566 18.2304 19.5524 18.4251C19.7265 18.5981 19.7467 18.8674 19.6123 19.0627L19.5547 19.1322L19.5323 19.1545C17.5691 21.1054 14.3962 21.0953 12.4453 19.1322C12.2507 18.9363 12.2517 18.6197 12.4476 18.4251C12.6434 18.2304 12.96 18.2314 13.1547 18.4273ZM18.5 13.5C19.0523 13.5 19.5 13.9477 19.5 14.5C19.5 15.0523 19.0523 15.5 18.5 15.5C17.9477 15.5 17.5 15.0523 17.5 14.5C17.5 13.9477 17.9477 13.5 18.5 13.5ZM13.5 13.5C14.0523 13.5 14.5 13.9477 14.5 14.5C14.5 15.0523 14.0523 15.5 13.5 15.5C12.9477 15.5 12.5 15.0523 12.5 14.5C12.5 13.9477 12.9477 13.5 13.5 13.5Z" fill="#616161"/>
</svg>
