<svg width="32" height="32" viewBox="0 0 32 32" fill="none" xmlns="http://www.w3.org/2000/svg">
<path d="M20.5 9C21.8807 9 23 10.1193 23 11.5V15.5997C22.6832 15.4378 22.3486 15.3056 22 15.207V13H10V20.5C10 21.3284 10.6716 22 11.5 22H15.207C15.3056 22.3486 15.4378 22.6832 15.5997 23H11.5C10.1193 23 9 21.8807 9 20.5V11.5C9 10.1193 10.1193 9 11.5 9H20.5ZM20.5 10H11.5C10.6716 10 10 10.6716 10 11.5V12H22V11.5C22 10.6716 21.3284 10 20.5 10ZM25 20.5C25 22.9853 22.9853 25 20.5 25C18.0147 25 16 22.9853 16 20.5C16 18.0147 18.0147 16 20.5 16C22.9853 16 25 18.0147 25 20.5ZM21 18.5C21 18.2239 20.7761 18 20.5 18C20.2239 18 20 18.2239 20 18.5V20H18.5C18.2239 20 18 20.2239 18 20.5C18 20.7761 18.2239 21 18.5 21H20V22.5C20 22.7761 20.2239 23 20.5 23C20.7761 23 21 22.7761 21 22.5V21H22.5C22.7761 21 23 20.7761 23 20.5C23 20.2239 22.7761 20 22.5 20H21V18.5Z" fill="#616161"/>
</svg>
