<svg width="32" height="32" viewBox="0 0 32 32" fill="none" xmlns="http://www.w3.org/2000/svg">
<path d="M13.5 15C14.0523 15 14.5 14.5523 14.5 14C14.5 13.4477 14.0523 13 13.5 13C12.9477 13 12.5 13.4477 12.5 14C12.5 14.5523 12.9477 15 13.5 15ZM19.5 14C19.5 14.5523 19.0523 15 18.5 15C17.9477 15 17.5 14.5523 17.5 14C17.5 13.4477 17.9477 13 18.5 13C19.0523 13 19.5 13.4477 19.5 14ZM9 12V20C9 21.6569 10.3431 23 12 23H17.3787C17.4056 23 17.4325 22.9995 17.4594 22.9984C17.4728 22.9995 17.4863 23 17.5 23C17.5417 23 17.5822 22.9949 17.6209 22.9853C18.0621 22.9315 18.4754 22.7317 18.7929 22.4142L22.4142 18.7929C22.7317 18.4754 22.9315 18.0621 22.9853 17.6209C22.9949 17.5822 23 17.5417 23 17.5C23 17.4863 22.9995 17.4728 22.9984 17.4594C22.9995 17.4325 23 17.4056 23 17.3787V12C23 10.3431 21.6569 9 20 9H12C10.3431 9 9 10.3431 9 12ZM22 12V17H19.75C18.5409 17 17.514 17.7803 17.1455 18.8649C16.8126 18.949 16.4337 19 16.0019 19C15.0872 19 14.4128 18.7722 13.9738 18.5527C13.7534 18.4426 13.5913 18.334 13.4875 18.2562C13.4356 18.2173 13.3985 18.1862 13.3761 18.1667C13.3649 18.1569 13.3574 18.15 13.3537 18.1465L13.351 18.1439C13.1556 17.9512 12.8409 17.952 12.6464 18.1464C12.4512 18.3417 12.4512 18.6583 12.6464 18.8536L12.6472 18.8543L12.648 18.8551L12.65 18.8571L12.655 18.862L12.6698 18.876C12.6816 18.8871 12.6976 18.9017 12.7176 18.9193C12.7578 18.9544 12.8144 19.0014 12.8876 19.0563C13.0339 19.166 13.2468 19.3074 13.5267 19.4473C14.0881 19.7278 14.9146 20 16.0019 20C16.3628 20 16.6948 19.9699 17 19.9173V22H12C10.8954 22 10 21.1046 10 20V12C10 10.8954 10.8954 10 12 10H20C21.1046 10 22 10.8954 22 12ZM18.0858 21.7071C18.0585 21.7344 18.0299 21.7599 18 21.7836V19.75C18 18.7835 18.7835 18 19.75 18H21.7836C21.7599 18.0299 21.7343 18.0585 21.7071 18.0858L18.0858 21.7071Z" fill="#616161"/>
</svg>
