<svg width="32" height="32" viewBox="0 0 32 32" fill="none" xmlns="http://www.w3.org/2000/svg">
<path d="M21.4 9C22.7864 9 23.9194 10.1869 23.9959 11.6824L24 11.8438V20.1562C24 21.6727 22.9148 22.9118 21.5475 22.9955L21.4 23H10.6C9.21357 23 8.0806 21.8131 8.00412 20.3176L8 20.1562V11.8438C8 10.3273 9.08516 9.08816 10.4525 9.0045L10.6 9H21.4ZM21.25 10H10.75C9.82377 10 9.06561 10.793 9.00404 11.7965L9 11.9286V20.0714C9 21.0922 9.71957 21.9277 10.6302 21.9956L10.75 22H21.25C22.1762 22 22.9344 21.207 22.996 20.2035L23 20.0714V11.9286C23 10.9078 22.2804 10.0723 21.3698 10.0044L21.25 10ZM12.8514 13.0021C13.4713 13.0021 13.9991 13.0988 14.4323 13.3006C14.6989 13.4248 14.8062 13.7254 14.672 13.972C14.5377 14.2187 14.2127 14.3179 13.9461 14.1937C13.6779 14.0688 13.3138 14.0021 12.8514 14.0021C11.8247 14.0021 11.0811 14.8345 11.0811 16.0011C11.0811 17.1209 11.894 18 12.8514 18C13.4476 18 13.8527 17.6487 13.9115 17.3268L13.9189 17.2472V16.5011L13.5405 16.5C13.242 16.5 13 16.2761 13 16C13 15.7545 13.1912 15.5504 13.4434 15.5081L13.5405 15.5L14.4595 15.5011C14.7248 15.5011 14.9455 15.6779 14.9913 15.9112L15 16.0011V17.2472C15 18.1244 14.1135 19 12.8514 19C11.2562 19 10 17.6415 10 16.0011C10 14.3198 11.1773 13.0021 12.8514 13.0021ZM17 13C17.2455 13 17.4496 13.1769 17.4919 13.4101L17.5 13.5V18.5C17.5 18.7761 17.2761 19 17 19C16.7545 19 16.5504 18.8231 16.5081 18.5899L16.5 18.5V13.5C16.5 13.2239 16.7239 13 17 13ZM21.5 13C21.7761 13 22 13.2239 22 13.5C22 13.7455 21.8231 13.9496 21.5899 13.9919L21.5 14H20V16H21.5C21.7761 16 22 16.2239 22 16.5C22 16.7455 21.8231 16.9496 21.5899 16.9919L21.5 17H20V18.5C20 18.7761 19.7761 19 19.5 19C19.2545 19 19.0504 18.8231 19.0081 18.5899L19 18.5V13.5C19 13.2239 19.2239 13 19.5 13H21.5Z" fill="#616161"/>
</svg>
