<svg width="32" height="32" viewBox="0 0 32 32" fill="none" xmlns="http://www.w3.org/2000/svg">
<path d="M20.0872 12.703C20.9271 11.8599 22.2664 11.8172 23.1568 12.5769L23.2869 12.6969L23.4134 12.8334C24.1376 13.682 24.1376 14.9366 23.4134 15.7851L23.293 15.9156L16.4167 22.8182C16.2617 22.9738 16.0749 23.093 15.8699 23.1681L15.7129 23.216L12.6274 23.9763C12.2883 24.0598 11.9802 23.7812 12.0092 23.4497L12.0236 23.3659L12.8156 20.2951C12.869 20.0882 12.9657 19.8957 13.0988 19.7301L13.2054 19.6111L20.0872 12.703ZM22.5811 13.4053C22.1201 12.946 21.393 12.9167 20.898 13.3165L20.7957 13.4087L13.9138 20.3169C13.8719 20.3589 13.838 20.4079 13.8135 20.4615L13.7839 20.5449L13.2006 22.8049L15.4737 22.245C15.5132 22.2353 15.5511 22.2208 15.5868 22.2021L15.6385 22.1708L15.7083 22.1124L22.5845 15.2099C23.0806 14.7119 23.0806 13.9066 22.5811 13.4053ZM12.4242 8.22867L12.4661 8.31311L15.448 15.9421L14.676 16.7171L14.004 14.9981H10.007L8.96614 17.6779C8.87719 17.9066 8.63835 18.0328 8.40561 17.9877L8.31893 17.9627C8.09015 17.8737 7.96399 17.6349 8.00906 17.4021L8.03413 17.3155L11.5344 8.31391C11.6877 7.91958 12.2166 7.89097 12.4242 8.22867ZM12.0006 9.87088L10.396 13.9981H13.614L12.0006 9.87088Z" fill="#616161"/>
</svg>
