<svg width="32" height="32" viewBox="0 0 32 32" fill="none" xmlns="http://www.w3.org/2000/svg">
<path d="M8.72113 8.05149L24.0756 15.6175C24.3233 15.7395 24.4252 16.0393 24.3031 16.287C24.2544 16.3858 24.1744 16.4658 24.0756 16.5145L8.72144 24.0803C8.47374 24.2023 8.17399 24.1005 8.05193 23.8528C7.99856 23.7445 7.98619 23.6205 8.0171 23.5038L9.9858 16.0701L8.01676 8.62789C7.94612 8.36093 8.10528 8.08726 8.37224 8.01663C8.48893 7.98576 8.61285 7.99814 8.72113 8.05149ZM9.26445 9.43403L10.8736 15.5161L10.9355 15.5041L11 15.5H18C18.2761 15.5 18.5 15.7239 18.5 16C18.5 16.2455 18.3231 16.4496 18.0899 16.4919L18 16.5H11C10.9686 16.5 10.9379 16.4971 10.9081 16.4916L9.26508 22.6976L22.7234 16.066L9.26445 9.43403Z" fill="#616161"/>
</svg>
