<svg width="32" height="32" viewBox="0 0 32 32" fill="none" xmlns="http://www.w3.org/2000/svg">
<path d="M10.8284 16.4852L16.4853 10.8284C17.6569 9.65681 19.5564 9.65681 20.7279 10.8284C21.8995 12 21.8995 13.8995 20.7279 15.071L14.0104 21.7885C13.4246 22.3743 12.4749 22.3743 11.8891 21.7885C11.3033 21.2028 11.3033 20.253 11.8891 19.6672L17.8995 13.6568C18.0948 13.4616 18.0948 13.145 17.8995 12.9497C17.7042 12.7544 17.3877 12.7544 17.1924 12.9497L11.182 18.9601C10.2057 19.9364 10.2057 21.5193 11.182 22.4956C12.1583 23.472 13.7412 23.472 14.7175 22.4956L21.435 15.7781C22.9971 14.216 22.9971 11.6834 21.435 10.1213C19.8729 8.55918 17.3403 8.55918 15.7782 10.1213L10.1213 15.7781C9.92606 15.9734 9.92606 16.29 10.1213 16.4852C10.3166 16.6805 10.6332 16.6805 10.8284 16.4852Z" fill="#616161"/>
</svg>
